<svg id="Layer_1" data-name="Layer 1" xmlns="http://www.w3.org/2000/svg" viewBox="0 0 100 100"><defs><style>.cls-1{fill:#ff0;}</style></defs><title>ccsp-logo-yellow</title><polygon class="cls-1" points="20 46.32 5 47.34 5 52.66 20 53.68 20 46.32"/><polygon class="cls-1" points="80 53.68 95 52.66 95 47.34 80 46.32 80 53.68"/><polygon class="cls-1" points="26.18 68.61 16.3 79.94 20.06 83.7 31.39 73.81 26.18 68.61"/><polygon class="cls-1" points="73.81 31.39 83.7 20.06 79.94 16.3 68.61 26.18 73.81 31.39"/><polygon class="cls-1" points="46.32 80 47.34 95 52.66 95 53.68 80 46.32 80"/><polygon class="cls-1" points="53.68 20 52.66 5 47.34 5 46.32 20 53.68 20"/><polygon class="cls-1" points="68.61 73.81 79.94 83.7 83.7 79.94 73.81 68.61 68.61 73.81"/><polygon class="cls-1" points="31.39 26.18 20.06 16.3 16.3 20.06 26.18 31.39 31.39 26.18"/><path class="cls-1" d="M50,69A19,19,0,1,1,67.84,43.51l5.65-2.06a25,25,0,1,0,0,17.1l-5.65-2.06A19,19,0,0,1,50,69Z"/><path class="cls-1" d="M50,57a7,7,0,1,1,6.57-9.39l5.65-2.06a13,13,0,1,0,0,8.9l-5.65-2.06A7,7,0,0,1,50,57Z"/></svg>